<?xml version="1.0" encoding="iso-8859-1"?>
<!-- Generator: Adobe Illustrator 18.0.0, SVG Export Plug-In . SVG Version: 6.00 Build 0)  -->
<!DOCTYPE svg PUBLIC "-//W3C//DTD SVG 1.1//EN" "http://www.w3.org/Graphics/SVG/1.1/DTD/svg11.dtd">
<svg version="1.1" id="_x31_" xmlns="http://www.w3.org/2000/svg" xmlns:xlink="http://www.w3.org/1999/xlink" x="0px" y="0px"
	 viewBox="0 0 512 512" style="enable-background:new 0 0 512 512;" xml:space="preserve">
<g>
	<rect style="fill:#3C3F44;" width="512" height="512"/>
	<polygon style="opacity:0.1;fill:#040000;" points="512,250.01 512,512 203.008,512 54.835,363.828 75.367,343.296 56.167,324.147 
		159.641,220.673 210.79,271.821 310.528,172.033 386.457,247.962 448.205,186.215 	"/>
	<g>
		<g>
			<g>
				<g>
					<polygon style="fill:#DDDDDE;" points="164.653,215.399 164.653,368.749 54.866,368.749 54.866,181.876 					"/>
					<rect x="70.549" y="247.068" style="fill:#88BBC0;" width="78.432" height="15.503"/>
					<rect x="77.673" y="278.913" style="fill:#88BBC0;" width="64.186" height="15.503"/>
					<rect x="93.005" y="336.065" style="fill:#88BBC0;" width="33.521" height="32.683"/>
				</g>
				<g>
					<polygon style="fill:#DDDDDE;" points="347.353,368.748 457.134,368.748 457.134,181.87 347.353,215.391 					"/>
					<rect x="363.028" y="247.068" style="fill:#88BBC0;" width="78.432" height="15.503"/>
					<rect x="370.151" y="278.913" style="fill:#88BBC0;" width="64.186" height="15.503"/>
					<rect x="385.483" y="336.065" style="fill:#88BBC0;" width="33.521" height="32.683"/>
				</g>
			</g>
			<g>
				<polygon style="fill:#DDDDDE;" points="328.922,176.389 328.922,380.107 183.088,380.107 183.088,131.893 264.618,156.748 
					311.694,171.122 				"/>
				<g>
					<rect x="242.09" y="212.023" style="fill:#88BBC0;" width="25.602" height="25.602"/>
					<rect x="200.905" y="212.023" style="fill:#88BBC0;" width="25.602" height="25.602"/>
					<rect x="285.502" y="212.023" style="fill:#88BBC0;" width="25.602" height="25.602"/>
				</g>
				<rect x="203.915" y="257.661" style="fill:#88BBC0;" width="104.179" height="20.593"/>
				<rect x="213.377" y="299.959" style="fill:#88BBC0;" width="85.256" height="20.593"/>
				<rect x="233.742" y="336.692" style="fill:#88BBC0;" width="44.524" height="43.411"/>
			</g>
		</g>
		<polygon style="fill:#88BBC0;" points="164.655,368.748 164.655,347.341 143.248,368.748 		"/>
		<g style="opacity:0.04;">
			<polygon style="fill:#040000;" points="347.354,368.748 385.483,368.748 419.004,368.748 457.134,368.748 457.134,181.87 
				347.354,215.39 			"/>
			<polygon style="fill:#040000;" points="183.095,328.901 183.095,380.104 233.742,380.104 278.267,380.104 328.913,380.104 
				328.913,183.083 			"/>
		</g>
	</g>
</g>
</svg>
