<!--?xml version="1.0" encoding="utf-8"?-->
<!-- Generator: Adobe Illustrator 18.1.1, SVG Export Plug-In . SVG Version: 6.00 Build 0)  -->

<svg version="1.1" id="_x32_" xmlns="http://www.w3.org/2000/svg" xmlns:xlink="http://www.w3.org/1999/xlink" x="0px" y="0px" viewBox="0 0 512 512" style="width: 256px; height: 256px; opacity: 1;" xml:space="preserve">
<style type="text/css">
	.st0{fill:#4B4B4B;}
</style>
<g>
	<path class="st0" d="M360.27,88.997V0H151.723v192.169H24.586V512h147.5h30.512h106.799h30.512h147.507V88.997H360.27z
		 M446.69,471.276H339.907h-30.512H202.597h-30.512H65.311V232.893h127.145V40.724h127.089v89.005h20.362H446.69V471.276z" style="fill: rgb(39, 111, 224);"></path>
	<rect x="240.052" y="86.778" class="st0" width="31.904" height="40.621" style="fill: rgb(39, 111, 224);"></rect>
	<rect x="240.052" y="188.637" class="st0" width="31.904" height="40.621" style="fill: rgb(39, 111, 224);"></rect>
	<rect x="240.052" y="290.496" class="st0" width="31.904" height="40.63" style="fill: rgb(39, 111, 224);"></rect>
	<rect x="240.052" y="392.356" class="st0" width="31.904" height="40.628" style="fill: rgb(39, 111, 224);"></rect>
	<rect x="375.804" y="186.522" class="st0" width="31.904" height="40.629" style="fill: rgb(39, 111, 224);"></rect>
	<rect x="375.804" y="288.389" class="st0" width="31.904" height="40.621" style="fill: rgb(39, 111, 224);"></rect>
	<rect x="375.804" y="390.248" class="st0" width="31.904" height="40.621" style="fill: rgb(39, 111, 224);"></rect>
	<rect x="104.293" y="288.389" class="st0" width="31.912" height="40.621" style="fill: rgb(39, 111, 224);"></rect>
	<rect x="104.293" y="390.248" class="st0" width="31.912" height="40.621" style="fill: rgb(39, 111, 224);"></rect>
</g>
</svg>
