<!--?xml version="1.0" encoding="utf-8"?-->
<!-- Generator: Adobe Illustrator 18.1.1, SVG Export Plug-In . SVG Version: 6.00 Build 0)  -->

<svg version="1.1" id="_x32_" xmlns="http://www.w3.org/2000/svg" xmlns:xlink="http://www.w3.org/1999/xlink" x="0px" y="0px" viewBox="0 0 512 512" style="width: 256px; height: 256px; opacity: 1;" xml:space="preserve">
<style type="text/css">
	.st0{fill:#4B4B4B;}
</style>
<g>
	<path class="st0" d="M490.911,254.637c-3.038-3.075-13.01-13.496-13.01-13.505c-37.154-39.368-93.286-98.879-221.902-98.879
		c-128.541,0-184.692,59.465-221.856,98.832c0,0.01-10.016,10.476-13.056,13.551C5.462,270.52,0,276.552,0,281.775
		c0,5.243,5.462,11.256,21.07,27.103c3.038,3.075,12.183,12.614,12.183,12.623c9.336,9.879,19.932,21.089,32.84,32.538l1.138,1.01
		l9.181-6.739l-0.624-1.386c-17.26-38.569-24.549-54.755-27.598-61.2l7.079-8.566c11.32-13.79,23.035-28.038,36.962-41.204
		c22.943-20.078,42.498-32.546,51.009-32.546c0.707,0,1.129,0.073,1.395,0.202c-6.288,14.69-9.484,30.215-9.484,46.161
		c0,66.158,53.81,119.976,119.958,119.976c66.158,0,119.976-53.818,119.976-119.976c0-15.433-3.131-30.994-9.089-45.298
		c39.984,18.756,64.524,46.06,88.119,74.751l5.664,6.876c-2.378,7.106-7.455,24.154-16.296,54.737l-6.243,21.694l16.379-15.506
		c9.567-9.071,17.775-17.756,24.99-25.413c0,0,9.291-9.658,12.321-12.733c15.607-15.847,21.07-21.86,21.07-27.103
		C512,276.542,506.537,270.52,490.911,254.637z M214.218,258.722c-18.674,0-33.86-15.185-33.86-33.86
		c0-18.664,15.186-33.85,33.86-33.85c18.674,0,33.86,15.186,33.86,33.85C248.077,243.537,232.891,258.722,214.218,258.722z" style="fill: rgb(243, 150, 29);"></path>
</g>
</svg>
