<!--?xml version="1.0" encoding="utf-8"?-->
<!-- Generator: Adobe Illustrator 15.1.0, SVG Export Plug-In . SVG Version: 6.00 Build 0)  -->

<svg version="1.1" id="_x32_" xmlns="http://www.w3.org/2000/svg" xmlns:xlink="http://www.w3.org/1999/xlink" x="0px" y="0px" width="512px" height="512px" viewBox="0 0 512 512" style="width: 256px; height: 256px; opacity: 1;" xml:space="preserve">
<style type="text/css">

	.st0{fill:#4B4B4B;}

</style>
<g>
	<path class="st0" d="M256,0c-81.844,0-148.188,66.344-148.188,148.188c0,34.844,12.063,66.969,32.219,92.25
		c12.844,16.078,22.219,27.016,27.938,37.453c2.906,5.234,4.969,10.359,6.406,16.359c1.438,6.016,2.219,12.938,2.219,21.625
		c0,5,0.563,9.594,1.813,13.844c1.813,6.313,5.438,11.938,10.625,15.594c5.188,3.688,11.375,5.172,17.516,5.156h98.922
		c4.109,0,8.188-0.625,12.031-2.172c5.781-2.266,10.781-6.813,13.688-12.547c2.984-5.75,4.219-12.391,4.219-19.875
		c0-8.688,0.781-15.609,2.219-21.625c2.172-8.969,5.75-16.094,11.391-24.344c5.625-8.234,13.359-17.406,22.969-29.469
		c20.156-25.281,32.203-57.406,32.203-92.25C404.188,66.344,337.859,0,256,0z M241.031,290.656
		c-1.125-10.938-2.641-21.906-4.813-30.516c-0.234-0.938-0.516-1.734-0.781-2.609c2.938,0.391,6.063,0.672,9.625,0.672
		c3.375,0,7.031-0.219,10.938-0.688c3.906,0.469,7.563,0.688,10.938,0.688c3.516,0,6.656-0.266,9.563-0.641
		c-3.406,11.844-5.328,29.281-6.531,44.688c-0.969,12.438-1.406,23.344-1.563,28.516h-24.797
		C243.391,324,242.719,307.453,241.031,290.656z M356.563,228.156c-12.5,15.75-22.469,27.078-29.781,40.203
		c-3.625,6.547-6.469,13.516-8.328,21.313s-2.75,16.359-2.75,26.203c0,3.516-0.406,6.266-1,8.281
		c-0.922,3.016-2.016,4.234-3.156,5.094c-1.172,0.828-2.938,1.5-6.078,1.516h-30.5c0.063-2.328,0.219-5.766,0.406-9.953
		c0.594-12.031,1.813-30.156,4.109-45.297c1.141-7.563,2.578-14.391,4.266-19.172c0.031-0.094,0.063-0.141,0.094-0.219
		c1.063-0.281,2.109-0.578,3.031-0.906c2.406-0.859,4.297-1.813,5.781-2.859c0.734-0.547,1.375-1.109,1.938-1.828
		c0.531-0.703,1.094-1.641,1.125-3.016c0-0.859-0.313-1.828-0.844-2.516c-0.813-1.031-1.797-1.469-2.656-1.719
		c-0.875-0.25-1.719-0.328-2.688-0.328c-0.875,0-1.813,0.078-2.844,0.234c-1.719,0.234-3.125,1.125-4.234,2.188
		c-1.391,1.359-2.406,3.156-3.328,5.125c-3.375,0.688-7.438,1.156-12.188,1.141c-3.219,0-6.734-0.203-10.531-0.672L256,250.906
		l-0.406,0.063c-3.797,0.469-7.313,0.672-10.531,0.672c-4.781,0-8.813-0.484-12.188-1.156c-0.188-0.406-0.344-0.891-0.547-1.281
		c-0.797-1.469-1.672-2.75-2.781-3.828c-1.109-1.063-2.516-1.953-4.234-2.188c-1.031-0.156-1.984-0.234-2.844-0.234
		c-1.281,0.016-2.375,0.109-3.578,0.656c-0.578,0.281-1.234,0.703-1.766,1.391s-0.859,1.656-0.844,2.516
		c0.031,1.375,0.594,2.297,1.125,3.016c0.969,1.234,2.203,2.094,3.781,2.969c1.781,0.969,4.219,1.813,6.938,2.578
		c1.828,5.047,3.375,12.453,4.563,20.625c1.859,12.531,2.969,26.922,3.625,38.156c0.313,5.609,0.531,10.438,0.656,13.859
		c0.031,0.766,0.047,1.438,0.063,2.047h-30.484c-2.078,0-3.609-0.328-4.672-0.766c-1.625-0.703-2.5-1.406-3.594-3.375
		c-1.031-1.969-1.969-5.469-1.969-10.75c0-9.844-0.906-18.406-2.75-26.203c-2.781-11.703-7.813-21.5-14.313-30.922
		c-6.5-9.469-14.406-18.766-23.797-30.594c-17.484-21.953-27.922-49.688-27.922-79.969c0-35.5,14.344-67.563,37.625-90.859
		C188.438,34.063,220.5,19.719,256,19.703c35.516,0.016,67.563,14.359,90.844,37.625c23.281,23.297,37.625,55.344,37.625,90.859
		C384.469,178.469,374.047,206.203,356.563,228.156z" style="fill: rgb(243, 150, 29);"></path>
	<path class="st0" d="M256,512c19.063,0,34.5-15.438,34.5-34.5h-69C221.5,496.563,236.938,512,256,512z" style="fill: rgb(243, 150, 29);"></path>
	<path class="st0" d="M317.438,382.234H194.531c-6.219,0-11.25,5.047-11.25,11.266s5.031,11.281,11.25,11.281h122.906
		c6.234,0,11.281-5.063,11.281-11.281S323.672,382.234,317.438,382.234z" style="fill: rgb(243, 150, 29);"></path>
	<path class="st0" d="M317.438,429.578H194.531c-6.219,0-11.25,5.047-11.25,11.266c0,6.234,5.031,11.281,11.25,11.281h122.906
		c6.234,0,11.281-5.047,11.281-11.281C328.719,434.625,323.672,429.578,317.438,429.578z" style="fill: rgb(243, 150, 29);"></path>
</g>
</svg>
