<?xml version="1.0" encoding="iso-8859-1"?>
<!-- Generator: Adobe Illustrator 18.0.0, SVG Export Plug-In . SVG Version: 6.00 Build 0)  -->
<!DOCTYPE svg PUBLIC "-//W3C//DTD SVG 1.1//EN" "http://www.w3.org/Graphics/SVG/1.1/DTD/svg11.dtd">
<svg version="1.1" id="_x32_" xmlns="http://www.w3.org/2000/svg" xmlns:xlink="http://www.w3.org/1999/xlink" x="0px" y="0px"
	 viewBox="0 0 512 512" style="enable-background:new 0 0 512 512;" xml:space="preserve">
<g>
	<rect style="fill:#E67A85;" width="512" height="512"/>
	<polygon style="opacity:0.1;fill:#040000;" points="512,189.747 512,512 179.353,512 80.793,413.389 80.793,227.481 
		80.486,227.481 80.486,211.916 112.537,179.814 117.76,174.54 140.237,152.064 166.605,148.531 220.006,141.26 262.195,135.526 
		315.648,128.307 357.786,122.573 411.187,115.302 413.337,114.995 434.432,112.128 440.013,117.709 	"/>
	<g>
		<g>
			<g>
				<path style="fill:#415562;" d="M438.552,201.016v206.689c0,1.96-1.654,3.492-3.614,3.492H78.716
					c-1.96,0-3.615-1.531-3.615-3.492V201.016H438.552z"/>
				<g>
					<polygon style="fill:#FAFAFB;" points="144.289,177.128 125.116,216.71 179.008,216.71 198.181,177.128 					"/>
					<polygon style="fill:#FAFAFB;" points="101.688,177.124 97.277,186.313 97.277,186.375 93.173,194.829 90.172,201.016 
						89.62,202.057 86.128,209.347 82.576,216.698 82.576,216.759 74.796,216.759 74.796,177.124 					"/>
					<polygon style="fill:#FAFAFB;" points="240.76,177.128 221.587,216.71 275.479,216.71 294.652,177.128 					"/>
					<polygon style="fill:#FAFAFB;" points="414.528,216.71 438.503,216.71 438.503,177.128 433.701,177.128 					"/>
					<polygon style="fill:#FAFAFB;" points="337.23,177.128 318.058,216.71 371.95,216.71 391.122,177.128 					"/>
					<polygon style="fill:#415562;" points="101.71,177.128 82.538,216.71 125.116,216.71 144.289,177.128 					"/>
					<polygon style="fill:#415562;" points="198.181,177.128 179.008,216.71 221.587,216.71 240.76,177.128 					"/>
					<polygon style="fill:#415562;" points="294.652,177.128 275.479,216.71 318.058,216.71 337.23,177.128 					"/>
					<polygon style="fill:#415562;" points="391.122,177.128 371.95,216.71 414.528,216.71 433.701,177.128 					"/>
				</g>
				<g style="opacity:0.8;">
					<path style="fill:#F6F5F5;" d="M119.882,245.551c-0.368-0.858-0.98-1.593-1.715-2.328c-0.796-0.612-1.715-1.163-2.879-1.531
						c-1.103-0.368-2.45-0.551-3.798-0.551h-10.659v22.911h5.329v-8.638h5.329c1.348,0,2.695-0.184,3.798-0.612
						c1.164-0.306,2.083-0.858,2.879-1.47c0.735-0.674,1.347-1.47,1.715-2.328c0.49-0.858,0.674-1.777,0.674-2.756
						C120.556,247.328,120.372,246.409,119.882,245.551z M114.124,250.574c-0.674,0.552-1.654,0.859-2.94,0.859h-5.023v-6.31h5.023
						c1.287,0,2.267,0.306,2.94,0.857c0.674,0.613,1.041,1.348,1.041,2.267C115.165,249.227,114.798,249.962,114.124,250.574z"/>
					<path style="fill:#F6F5F5;" d="M139.73,254.128c0.613-0.184,1.225-0.429,1.899-0.796c0.551-0.367,1.103-0.735,1.531-1.287
						c0.49-0.49,0.858-1.102,1.103-1.715c0.307-0.612,0.429-1.41,0.429-2.205c0-0.98-0.184-1.838-0.612-2.696
						c-0.367-0.858-0.98-1.532-1.715-2.205c-0.796-0.612-1.715-1.163-2.818-1.531c-1.103-0.368-2.389-0.551-3.737-0.551h-10.782
						v22.911h5.329v-9.189h3.859l5.391,9.189h6.187L139.73,254.128z M138.26,250.33c-0.674,0.551-1.654,0.858-2.818,0.858h-5.085
						v-6.065h5.085c1.164,0,2.144,0.306,2.818,0.796c0.735,0.613,1.103,1.348,1.103,2.206
						C139.362,249.043,138.995,249.779,138.26,250.33z"/>
					<path style="fill:#F6F5F5;" d="M169.563,249.656c-0.061-0.858-0.184-1.715-0.367-2.451c-0.122-0.735-0.429-1.409-0.857-2.083
						c-0.307-0.552-0.858-1.164-1.531-1.777c-0.919-0.735-2.022-1.347-3.186-1.777c-1.225-0.428-2.573-0.612-4.166-0.612
						s-3.002,0.184-4.166,0.612c-1.225,0.429-2.266,1.042-3.186,1.777c-0.674,0.612-1.225,1.225-1.593,1.777
						c-0.368,0.674-0.674,1.348-0.858,2.083c-0.122,0.735-0.245,1.593-0.245,2.451c-0.061,0.857-0.061,1.838-0.061,2.94
						c0,1.102,0,2.083,0.061,2.94c0,0.919,0.123,1.715,0.245,2.389c0.184,0.735,0.49,1.47,0.858,2.083
						c0.368,0.613,0.919,1.225,1.593,1.777c0.919,0.735,1.96,1.409,3.186,1.777c1.164,0.428,2.573,0.673,4.166,0.673
						s2.94-0.245,4.166-0.673c1.164-0.368,2.266-1.042,3.186-1.777c0.674-0.552,1.225-1.164,1.531-1.777
						c0.428-0.612,0.735-1.348,0.857-2.083c0.184-0.674,0.307-1.47,0.367-2.389c0-0.858,0.061-1.838,0.061-2.94
						C169.624,251.494,169.563,250.513,169.563,249.656z M164.172,255.291c-0.061,0.736-0.122,1.286-0.245,1.777
						c-0.123,0.491-0.245,0.796-0.429,1.102c-0.184,0.307-0.306,0.552-0.612,0.797c-0.429,0.367-0.858,0.673-1.47,0.918
						c-0.551,0.245-1.164,0.368-1.96,0.368c-0.735,0-1.409-0.123-2.022-0.368c-0.551-0.245-0.98-0.551-1.47-0.918
						c-0.245-0.245-0.49-0.491-0.612-0.797c-0.123-0.306-0.307-0.612-0.429-1.102c-0.061-0.491-0.184-1.041-0.184-1.777
						c-0.061-0.674-0.061-1.593-0.061-2.695c0-1.102,0-2.022,0.061-2.756c0-0.674,0.123-1.287,0.184-1.777
						c0.122-0.429,0.306-0.858,0.429-1.164c0.122-0.245,0.368-0.491,0.612-0.736c0.49-0.367,0.919-0.674,1.47-0.918
						c0.613-0.245,1.287-0.307,2.022-0.307c0.796,0,1.409,0.061,1.96,0.307c0.613,0.244,1.041,0.551,1.47,0.918
						c0.306,0.245,0.429,0.491,0.612,0.736c0.184,0.306,0.306,0.734,0.429,1.164c0.123,0.49,0.184,1.102,0.245,1.777
						c0,0.734,0.061,1.654,0.061,2.756C164.234,253.698,164.172,254.617,164.172,255.291z"/>
					<path style="fill:#F6F5F5;" d="M194.741,247.879c-0.061-0.674-0.307-1.286-0.49-1.838c-0.245-0.551-0.612-1.102-0.98-1.531
						c-0.98-1.164-2.144-2.021-3.492-2.511c-1.348-0.613-2.941-0.858-4.84-0.858h-9.863v22.911h9.863
						c1.899,0,3.492-0.306,4.84-0.796c1.347-0.612,2.511-1.409,3.492-2.572c0.368-0.491,0.735-1.042,0.98-1.531
						c0.184-0.613,0.429-1.164,0.49-1.838c0.122-0.674,0.184-1.348,0.245-2.145v-5.206
						C194.924,249.227,194.863,248.492,194.741,247.879z M189.595,254.924c-0.061,0.674-0.123,1.225-0.184,1.653
						c0,0.491-0.123,0.859-0.307,1.164c-0.122,0.307-0.368,0.612-0.613,0.858c-0.919,0.919-2.205,1.409-3.982,1.409h-4.104v-14.886
						h4.104c1.777,0,3.063,0.49,3.982,1.409c0.245,0.307,0.49,0.551,0.613,0.857c0.184,0.368,0.307,0.736,0.307,1.226
						c0.061,0.428,0.122,0.98,0.184,1.654V254.924z"/>
					<path style="fill:#F6F5F5;" d="M214.895,241.141v14.886c0,1.348-0.368,2.388-1.225,3.124c-0.919,0.673-2.022,1.102-3.553,1.102
						c-1.409,0-2.573-0.429-3.43-1.102c-0.857-0.736-1.286-1.777-1.286-3.124v-14.886h-5.33v15.07c0,1.226,0.184,2.328,0.796,3.308
						c0.49,0.98,1.164,1.837,2.144,2.512c0.919,0.673,1.96,1.225,3.186,1.593c1.225,0.428,2.573,0.612,3.92,0.612
						c1.471,0,2.757-0.183,3.982-0.612c1.225-0.368,2.267-0.92,3.186-1.593c0.919-0.674,1.654-1.531,2.205-2.512
						c0.49-0.98,0.735-2.083,0.735-3.308v-15.07H214.895z"/>
					<path style="fill:#F6F5F5;" d="M238.541,259.335c-0.735,0.551-1.776,0.919-3.124,0.919c-0.735,0-1.409-0.123-2.021-0.368
						c-0.552-0.245-1.042-0.49-1.409-0.857c-0.245-0.245-0.49-0.491-0.674-0.797c-0.184-0.306-0.245-0.673-0.367-1.164
						c-0.061-0.491-0.184-1.041-0.245-1.777c-0.061-0.674-0.061-1.593-0.061-2.695c0-1.102,0-2.022,0.061-2.756
						c0.061-0.674,0.184-1.287,0.245-1.777c0.123-0.429,0.184-0.858,0.367-1.164c0.184-0.245,0.429-0.552,0.674-0.797
						c0.368-0.306,0.858-0.612,1.409-0.857c0.612-0.245,1.286-0.307,2.021-0.307c1.348,0,2.389,0.307,3.063,0.918
						c0.735,0.613,1.287,1.348,1.531,2.329h5.452c-0.49-2.389-1.715-4.227-3.492-5.392c-1.776-1.225-4.043-1.837-6.555-1.837
						c-1.592,0-3.002,0.184-4.165,0.612c-1.164,0.429-2.205,1.042-3.185,1.777c-0.735,0.612-1.225,1.225-1.654,1.777
						c-0.306,0.674-0.612,1.348-0.796,2.083c-0.184,0.735-0.245,1.593-0.306,2.451v5.881c0.061,0.919,0.122,1.715,0.306,2.389
						c0.184,0.735,0.49,1.47,0.796,2.083c0.429,0.613,0.919,1.225,1.654,1.777c0.98,0.735,2.021,1.409,3.185,1.777
						c1.164,0.428,2.573,0.673,4.165,0.673c2.512,0,4.778-0.673,6.555-1.837c1.777-1.226,3.002-3.002,3.492-5.452h-5.452
						C239.766,257.926,239.215,258.661,238.541,259.335z"/>
					<path style="fill:#F6F5F5;" d="M248.036,241.141v3.982h7.229v18.929h5.329v-18.929h7.167v-3.982H248.036z"/>
					<path style="fill:#F6F5F5;" d="M272.111,241.141v22.911h5.39v-22.911H272.111z"/>
					<path style="fill:#F6F5F5;" d="M303.108,249.656c0-0.858-0.123-1.715-0.245-2.451c-0.184-0.735-0.49-1.409-0.919-2.083
						c-0.307-0.552-0.858-1.164-1.532-1.777c-0.919-0.735-2.022-1.347-3.186-1.777c-1.164-0.428-2.573-0.612-4.165-0.612
						c-1.593,0-2.94,0.184-4.166,0.612c-1.225,0.429-2.267,1.042-3.186,1.777c-0.674,0.612-1.225,1.225-1.593,1.777
						c-0.429,0.674-0.612,1.348-0.796,2.083c-0.184,0.735-0.306,1.593-0.306,2.451c-0.061,0.857-0.061,1.838-0.061,2.94
						c0,1.102,0,2.083,0.061,2.94c0,0.919,0.123,1.715,0.306,2.389c0.184,0.735,0.367,1.47,0.796,2.083
						c0.367,0.613,0.919,1.225,1.593,1.777c0.919,0.735,1.96,1.409,3.186,1.777c1.225,0.428,2.573,0.673,4.166,0.673
						c1.593,0,3.002-0.245,4.165-0.673c1.164-0.368,2.267-1.042,3.186-1.777c0.674-0.552,1.225-1.164,1.532-1.777
						c0.429-0.612,0.735-1.348,0.919-2.083c0.123-0.674,0.245-1.47,0.245-2.389c0.061-0.858,0.061-1.838,0.061-2.94
						C303.169,251.494,303.169,250.513,303.108,249.656z M297.779,255.291c-0.061,0.736-0.123,1.286-0.245,1.777
						c-0.123,0.491-0.245,0.796-0.429,1.102c-0.122,0.307-0.367,0.552-0.612,0.797c-0.368,0.367-0.858,0.673-1.409,0.918
						c-0.613,0.245-1.287,0.368-2.022,0.368c-0.735,0-1.409-0.123-1.96-0.368c-0.612-0.245-1.103-0.551-1.531-0.918
						c-0.245-0.245-0.429-0.491-0.612-0.797c-0.184-0.306-0.307-0.612-0.429-1.102c-0.123-0.491-0.184-1.041-0.184-1.777v-5.451
						c0-0.674,0.061-1.287,0.184-1.777c0.122-0.429,0.245-0.858,0.429-1.164c0.184-0.245,0.367-0.491,0.612-0.736
						c0.429-0.367,0.919-0.674,1.531-0.918c0.552-0.245,1.225-0.307,1.96-0.307c0.735,0,1.409,0.061,2.022,0.307
						c0.551,0.244,1.041,0.551,1.409,0.918c0.245,0.245,0.49,0.491,0.612,0.736c0.184,0.306,0.306,0.734,0.429,1.164
						c0.123,0.49,0.184,1.102,0.245,1.777c0.061,0.734,0.061,1.654,0.061,2.756C297.84,253.698,297.84,254.617,297.779,255.291z"/>
					<path style="fill:#F6F5F5;" d="M324.304,241.141v14.028l-10.843-14.028h-4.778v22.911h5.33v-14.089l10.904,14.089h4.778
						v-22.911H324.304z"/>
				</g>
				<g>
					<g>
						<rect x="196.677" y="280.069" style="fill:#FFFFFF;" width="3.434" height="48.936"/>
					</g>
					<g>
						<rect x="313.545" y="280.069" style="fill:#FFFFFF;" width="3.434" height="48.936"/>
					</g>
				</g>
				<g>
					<rect x="115.844" y="337.59" style="fill:#FFFFFF;" width="281.968" height="3.434"/>
				</g>
				<g style="opacity:0.2;">
					<rect x="115.844" y="340.881" style="fill:#FFFFFF;" width="281.968" height="3.434"/>
				</g>
				<g style="opacity:0.2;">
					<rect x="115.844" y="371.502" style="fill:#FFFFFF;" width="281.968" height="3.434"/>
				</g>
				<g>
					<rect x="115.844" y="367.639" style="fill:#FFFFFF;" width="281.968" height="3.434"/>
				</g>
				<g>
					<polygon style="fill:#FAFAFB;" points="434.185,140.635 438.941,139.971 437.529,130.157 					"/>
					<g>
						<polygon style="fill:#FAFAFB;" points="118.758,143.496 73.059,149.696 78.426,188.913 105.127,185.29 						"/>
						<polygon style="fill:#FAFAFB;" points="214.343,130.507 200.744,172.346 165.459,177.124 147.326,179.575 148.122,177.124 
							160.926,137.797 						"/>
						<polygon style="fill:#FAFAFB;" points="405.533,104.594 404.614,107.351 391.934,146.372 361.549,150.477 338.516,153.601 
							352.115,111.823 						"/>
						<polygon style="fill:#FAFAFB;" points="309.969,117.581 296.308,159.36 242.89,166.588 256.551,124.81 						"/>
						<polygon style="fill:#415562;" points="160.926,137.797 148.122,177.124 147.326,179.575 142.793,180.188 120.923,183.128 
							105.119,185.273 107.753,177.124 109.529,171.734 112.102,163.832 118.779,143.493 134.584,141.349 						"/>
						<polygon style="fill:#415562;" points="256.551,124.81 242.89,166.588 200.744,172.346 214.343,130.507 						"/>
						<polygon style="fill:#415562;" points="352.115,111.823 338.516,153.601 296.308,159.36 309.969,117.581 						"/>
						<polygon style="fill:#415562;" points="437.511,130.139 437.511,130.201 436.959,131.855 434.08,140.676 391.934,146.372 
							404.614,107.351 405.533,104.594 407.677,104.288 428.75,101.409 433.467,100.796 434.325,106.983 						"/>
					</g>
				</g>
				<path style="fill:#4D535C;" d="M126.66,209.987H89.239c-4.833,0-8.751-3.918-8.751-8.751v-37.421
					c0-7.797,9.426-11.701,14.94-6.188l37.421,37.421C138.361,200.561,134.456,209.987,126.66,209.987z"/>
				<circle style="fill:#FAFAFB;" cx="92.431" cy="170.398" r="4.194"/>
				<circle style="fill:#FAFAFB;" cx="92.431" cy="198.968" r="4.194"/>
				<circle style="fill:#FAFAFB;" cx="119.561" cy="198.968" r="4.194"/>
			</g>
			<rect x="75.102" y="216.759" style="opacity:0.2;fill:#1D1E1E;" width="363.45" height="6.739"/>
		</g>
		<g>
			<polygon style="opacity:0.2;fill:#1D1E1E;" points="437.511,130.139 437.511,130.201 436.959,131.855 434.08,140.676 
				391.934,146.372 361.488,150.538 361.549,150.477 404.614,107.351 407.677,104.288 428.75,101.409 433.467,100.796 
				434.325,106.983 			"/>
			<path style="opacity:0.2;fill:#1D1E1E;" d="M438.503,177.127h-4.802h-42.578H337.23h-2.358L100.795,411.204h334.167
				c1.959,0,3.572-1.556,3.572-3.515V223.476v-6.741v-15.73h-0.032V177.127z"/>
			<polygon style="opacity:0.2;fill:#1D1E1E;" points="438.941,139.971 437.528,130.157 434.185,140.635 			"/>
		</g>
	</g>
</g>
</svg>
