<!--?xml version="1.0" encoding="utf-8"?-->
<!-- Generator: Adobe Illustrator 18.1.1, SVG Export Plug-In . SVG Version: 6.00 Build 0)  -->

<svg version="1.1" id="_x32_" xmlns="http://www.w3.org/2000/svg" xmlns:xlink="http://www.w3.org/1999/xlink" x="0px" y="0px" viewBox="0 0 512 512" style="width: 256px; height: 256px; opacity: 1;" xml:space="preserve">
<style type="text/css">
	.st0{fill:#4B4B4B;}
</style>
<g>
	<path class="st0" d="M437.666,404.773c-12.269-18.374-30.904-28.535-48.419-35.136c-8.778-3.304-17.366-5.742-24.928-7.811
		c-7.548-2.055-14.116-3.787-18.528-5.446c-7.716-2.867-15.869-6.581-21.556-10.576c-2.841-1.981-5.03-4.023-6.299-5.762
		c-1.283-1.78-1.632-3.008-1.646-4.083c0-7.421,0-16.695,0-28.91c9.872-10.986,24.056-28.01,29.884-55
		c2.035-0.913,4.05-1.954,5.99-3.304c4.829-3.331,8.925-8.173,12.397-14.754c3.493-6.608,6.588-15.056,9.892-26.614
		c1.672-5.856,2.445-10.946,2.445-15.48c0.007-5.225-1.068-9.757-3.042-13.438c-1.134-2.135-2.572-3.808-4.096-5.265
		c2.048-4.607,6.199-17.092,6.199-42.577c0-33.793-14.183-99.659-55.712-111.438C289.326,10.409,247.173,0,199.674,0
		c-47.499,0-55.713,32.88-50.232,55.719c-31.281,25.929-13.599,104.286-10.262,121.323c-0.322,0.504-0.738,0.873-1.027,1.417
		c-1.974,3.68-3.056,8.213-3.049,13.438c0.006,4.533,0.778,9.624,2.451,15.48c4.419,15.392,8.408,25.331,13.572,32.624
		c2.579,3.62,5.521,6.527,8.717,8.744c1.94,1.35,3.955,2.391,5.99,3.304c5.829,26.99,20.012,44.014,29.884,55
		c0,12.216,0,21.49,0,28.91c0,0.913-0.362,2.229-1.78,4.11c-2.075,2.794-6.38,6.178-11.49,9.046
		c-5.097,2.902-10.96,5.413-16.09,7.219c-6.024,2.136-15.728,4.359-26.6,7.474c-16.339,4.728-35.653,11.531-51.367,25.009
		c-7.843,6.736-14.734,15.197-19.576,25.714c-4.849,10.51-7.629,23-7.622,37.614c0,3.392,0.148,6.897,0.457,10.523
		c0.221,2.545,1.189,4.607,2.324,6.306c2.163,3.183,5.03,5.541,8.623,7.965c6.292,4.164,15.009,8.234,26.17,12.229
		c33.403,11.913,88.706,22.82,157.238,22.833c55.679,0,102.674-7.226,136.218-16.305c16.782-4.546,30.18-9.529,39.864-14.505
		c4.849-2.505,8.77-4.983,11.88-7.696c1.558-1.37,2.921-2.807,4.07-4.52c1.128-1.699,2.102-3.761,2.324-6.306
		c0.302-3.62,0.45-7.118,0.45-10.496C450.835,432.69,445.832,416.988,437.666,404.773z M179.775,245.245l-0.765-4.332l-4.136-1.477
		c-2.633-0.94-4.641-1.901-6.393-3.116c-2.586-1.827-4.929-4.318-7.67-9.422c-2.706-5.076-5.574-12.666-8.71-23.672
		c-1.377-4.809-1.867-8.549-1.867-11.33c0.007-3.223,0.625-5.111,1.256-6.299c0.953-1.733,2.122-2.472,3.606-3.062
		c1.444-0.558,3.022-0.631,3.217-0.618l2.33,0.114c7.817,8.018,13.458,19.824,13.458,19.824s-2.74-6.393-2.74-30.14
		c0-23.746,15.526-55.718,15.526-55.718s-5.741-14.754-7.676-24.821c0.779-1.404,1.491-2.827,2.357-4.204
		c0.1-0.161,0.228-0.309,0.336-0.47c22.584,32.611,78.37,38.581,90.842,34.975c41.098-11.88,56.632,9.14,56.632,9.14
		s9.134,56.625,9.134,75.812c1.021-9.704,10.322-18.26,18.32-23.921c0.517,0.181,1.021,0.403,1.464,0.698
		c0.867,0.558,1.572,1.202,2.216,2.391c0.638,1.188,1.249,3.076,1.263,6.299c0,2.78-0.49,6.521-1.867,11.33
		c-4.171,14.694-7.911,23.236-11.342,27.976c-1.719,2.398-3.29,3.895-5.037,5.118c-1.752,1.215-3.76,2.176-6.392,3.116l-4.144,1.477
		l-0.758,4.332c-4.842,27.111-18.811,42.355-29.126,53.845l-1.94,2.162v2.902c0,8.865,0,16.057,0,22.282l-45.155,33.604
		l-45.169-33.725c0-6.199,0-13.358,0-22.162v-2.902l-1.941-2.162C198.586,287.6,184.617,272.356,179.775,245.245z M264.116,367.724
		l37.459-27.876c0.691,3.431,2.23,6.54,4.17,9.16c1.699,2.276,3.727,4.264,5.903,6.112l-18.454,45.095L264.116,367.724z
		 M288.567,411.529l-7.165,17.514l-2.088-27.85L288.567,411.529z M218.86,400.166l-18.488-45.175
		c2.048-1.76,3.982-3.633,5.614-5.775c2.048-2.687,3.74-5.876,4.466-9.462l37.446,27.964L218.86,400.166z M234.011,399.716
		l-2.378,31.684l-8.146-19.918L234.011,399.716z M123.741,481.095c-16.024-4.332-28.629-9.093-36.895-13.357
		c-4.117-2.115-7.152-4.13-8.831-5.614c-0.719-0.624-1.122-1.102-1.323-1.377c-0.235-2.982-0.369-5.862-0.369-8.603
		c0.027-16.977,4.177-29.374,10.59-39.104c9.596-14.533,25.002-23.424,41.1-29.488c8.011-3.022,16.118-5.319,23.558-7.314
		c0.611-0.168,1.188-0.316,1.793-0.476l-8.858,31.885l35.942,17.971l-25.304,35.579l35.734,32.094
		C164.739,490.396,141.96,486.024,123.741,481.095z M209.25,495.016l-39.454-35.444l27.064-38.05l-39.326-19.663l8.179-29.468
		c1.981-0.584,3.902-1.168,5.668-1.793c6.246-2.21,13.277-5.258,19.771-9.1l55.323,135.225
		C233.52,496.521,221.09,495.937,209.25,495.016z M240.961,454.193l5.097-67.928l9.946-11.115l11.269,12.585l4.808,64.1
		l-16.043,39.206L240.961,454.193z M265.587,496.756l55.309-135.197c0.188,0.107,0.363,0.228,0.551,0.336
		c6.098,3.458,12.766,6.306,19.039,8.656c1.846,0.685,3.828,1.336,5.909,1.974l8.146,29.334l-39.326,19.663l27.063,38.05
		l-39.514,35.505C290.951,495.99,278.508,496.554,265.587,496.756z M435.309,460.727l-0.651,0.772
		c-1.115,1.128-3.365,2.827-6.528,4.626c-11.155,6.441-33.168,14.345-62.716,20.362c-13.25,2.706-28.125,5.044-44.242,6.829
		l35.76-32.12l-25.304-35.579l35.941-17.971l-8.79-31.65c2.975,0.813,6.024,1.645,9.194,2.572
		c15.627,4.513,32.893,10.859,45.746,21.893c6.447,5.52,11.846,12.148,15.721,20.496c3.861,8.347,6.238,18.488,6.238,31.214
		C435.678,454.891,435.544,457.758,435.309,460.727z" style="fill: rgb(220, 62, 99);"></path>
</g>
</svg>
