<?xml version="1.0" encoding="iso-8859-1"?>
<!-- Generator: Adobe Illustrator 18.0.0, SVG Export Plug-In . SVG Version: 6.00 Build 0)  -->
<!DOCTYPE svg PUBLIC "-//W3C//DTD SVG 1.1//EN" "http://www.w3.org/Graphics/SVG/1.1/DTD/svg11.dtd">
<svg version="1.1" id="_x35_" xmlns="http://www.w3.org/2000/svg" xmlns:xlink="http://www.w3.org/1999/xlink" x="0px" y="0px"
	 viewBox="0 0 512 512" style="enable-background:new 0 0 512 512;" xml:space="preserve">
<g>
	<polygon style="opacity:0.15;fill:#040000;" points="502.768,3.312 502.768,31.939 387.757,391.713 385.109,398.87 351.759,398.87 
		245.479,341.687 245.408,341.687 167.398,370.315 161.458,364.374 153.729,356.646 153.443,356.359 153.085,356.001 
		152.369,355.284 144.353,347.27 115.583,318.499 113.579,273.267 13.312,216.228 6.942,209.857 6.799,206.352 28.985,198.909 
		27.124,197.906 33.637,195.687 502.052,3.67 	"/>
	<g>
		<polygon style="fill:#C597C3;" points="489.886,19.415 138.27,260.886 117.73,275.558 113.579,273.267 13.312,216.228 0,208.641 
			6.799,206.352 28.985,198.909 477.433,23.709 477.576,23.636 480.081,22.706 480.152,22.706 480.224,22.635 		"/>
		<polygon style="fill:#F3EE72;" points="489.886,19.415 458.825,49.903 458.467,50.189 458.324,50.261 457.894,50.761 
			211.484,297.385 203.827,304.9 194.308,314.204 152.369,355.284 140.632,366.736 129.396,377.686 125.173,381.836 
			118.804,388.207 118.66,388.278 118.016,374.679 117.658,365.948 115.583,318.499 113.579,273.267 113.579,272.909 
			137.411,256.233 223.222,196.188 310.32,138.432 311.036,137.932 		"/>
		<polygon style="fill:#F5F295;" points="203.171,351.598 206.473,350.167 238.247,316.963 363.361,186.271 476.3,33.623 
			489.912,19.387 207.06,305.112 118.636,388.325 186.44,358.863 		"/>
		<polygon style="fill:#87C792;" points="512,0.02 504.056,5.674 502.768,6.604 480.224,22.635 480.152,22.706 480.081,22.706 
			452.527,42.244 363.353,102.005 362.566,102.578 226.442,193.898 223.222,196.188 141.061,254.587 140.059,255.304 
			138.199,256.663 137.411,256.233 33.852,201.413 28.985,198.909 27.124,197.906 33.637,195.687 502.052,3.67 502.768,3.312 
			502.983,3.24 		"/>
		<polygon style="fill:#F7C267;" points="138.192,256.619 140.704,368.954 511.993,0 		"/>
		<polygon style="fill:#F8D382;" points="203.171,351.598 237.146,316.559 363.361,186.271 511.999,0.014 476.3,33.623 
			208.124,305.515 140.687,368.953 186.44,358.863 		"/>
		<polygon style="fill:#A95965;" points="273.034,331.523 245.479,341.687 245.408,341.687 167.398,370.315 155.59,374.679 
			119.734,387.849 118.804,388.207 118.66,388.278 138.127,357.289 140.345,353.639 144.353,347.27 172.337,302.396 203.827,304.9 
			205.115,304.972 205.902,305.043 207.047,305.115 208.121,305.545 208.193,305.545 237.106,316.567 237.178,316.567 
			238.251,316.996 		"/>
		<polygon style="fill:#F8D382;" points="512,3.025 502.768,31.079 384.608,389.996 380.887,398.87 376.879,408.389 375.52,411.61 
			375.52,411.681 369.436,408.389 351.83,398.87 351.759,398.87 245.479,341.687 245.408,341.687 225.083,330.737 225.011,330.737 
			223.937,330.164 197.242,315.779 196.24,315.277 195.74,314.921 195.31,314.706 194.308,314.204 172.337,302.396 452.527,55.414 
			452.527,55.342 457.894,50.761 458.467,50.189 458.825,49.903 460.9,48.114 461.33,47.684 465.123,44.392 465.839,43.675 
			468.701,41.172 469.632,40.384 469.918,40.169 469.918,40.097 470.061,40.026 473.568,36.949 473.639,36.805 473.783,36.59 
			474.713,35.804 481.297,30.078 481.583,29.863 485.091,26.715 485.52,26.357 501.05,12.616 501.122,12.544 502.768,11.112 
			504.056,9.967 		"/>
		<polygon style="fill:#C597C3;" points="387.757,391.713 385.109,398.87 379.527,413.757 375.52,411.61 369.436,408.389 
			351.83,398.87 351.759,398.87 245.479,341.687 245.408,341.687 225.083,330.737 225.011,330.737 223.937,330.164 197.242,315.779 
			196.24,315.277 195.74,314.921 195.31,314.706 194.308,314.204 172.337,302.396 190.873,286.437 211.484,297.385 212.272,297.887 
			212.916,298.245 213.56,298.531 213.632,298.603 214.562,299.031 214.705,299.104 240.541,312.988 240.613,312.988 
			241.543,313.488 241.615,313.488 384.608,389.996 		"/>
		<polygon style="fill:#7190CA;" points="512,3.025 502.768,31.939 387.757,391.713 384.608,389.996 241.615,313.488 
			241.543,313.488 240.613,312.988 240.541,312.988 214.705,299.104 214.562,299.031 213.632,298.603 213.56,298.531 
			212.916,298.245 212.272,297.887 211.484,297.385 190.873,286.437 452.527,55.414 457.894,50.761 458.324,50.261 458.467,50.189 
			458.825,49.903 460.9,48.114 461.33,47.684 465.409,44.177 468.415,41.528 468.701,41.172 469.918,40.169 469.918,40.097 
			473.568,36.949 473.639,36.805 474.57,36.017 474.713,35.804 481.297,30.078 481.583,29.863 485.091,26.715 501.05,12.616 
			501.122,12.544 502.768,11.112 504.056,9.967 		"/>
	</g>
</g>
</svg>
