<?xml version="1.0" encoding="iso-8859-1"?>
<!-- Generator: Adobe Illustrator 18.0.0, SVG Export Plug-In . SVG Version: 6.00 Build 0)  -->
<!DOCTYPE svg PUBLIC "-//W3C//DTD SVG 1.1//EN" "http://www.w3.org/Graphics/SVG/1.1/DTD/svg11.dtd">
<svg version="1.1" id="_x32_" xmlns="http://www.w3.org/2000/svg" xmlns:xlink="http://www.w3.org/1999/xlink" x="0px" y="0px"
	 viewBox="0 0 512 512" style="enable-background:new 0 0 512 512;" xml:space="preserve">
<g>
	<rect style="fill:#3C3F44;" width="512" height="512"/>
	<polygon style="opacity:0.1;fill:#040000;" points="512,191.334 512,512 292.506,512 164.506,384 164.25,383.744 162.56,382.054 
		157.286,376.78 157.03,370.534 154.112,304.23 72.857,257.996 93.593,251.034 92.262,250.316 96.922,248.729 432.026,111.36 
		433.357,112.691 433.459,112.794 	"/>
	<polygon style="opacity:0.15;fill:#040000;" points="432.537,111.104 432.537,131.584 350.259,388.966 348.365,394.086 
		324.506,394.086 248.473,353.177 248.422,353.177 192.614,373.658 188.365,369.408 182.835,363.879 182.63,363.674 
		182.374,363.418 181.862,362.905 176.128,357.171 155.546,336.589 154.112,304.23 82.381,263.424 77.824,258.866 77.722,256.359 
		93.593,251.034 92.262,250.316 96.922,248.729 432.026,111.36 	"/>
	<g>
		<polygon style="fill:#DBAFD0;" points="423.322,122.624 171.776,295.372 157.082,305.869 154.112,304.23 82.381,263.424 
			72.857,257.996 77.722,256.359 93.593,251.034 414.413,125.696 414.515,125.644 416.307,124.979 416.358,124.979 416.41,124.927 
					"/>
		<polygon style="fill:#F4F085;" points="423.322,122.624 401.101,144.435 400.845,144.64 400.742,144.691 400.435,145.049 
			224.153,321.484 218.675,326.86 211.866,333.516 181.862,362.905 173.466,371.098 165.427,378.931 162.406,381.9 157.85,386.457 
			157.747,386.509 157.286,376.78 157.03,370.534 155.546,336.589 154.112,304.23 154.112,303.974 171.162,292.044 232.55,249.087 
			294.861,207.769 295.373,207.411 		"/>
		<polygon style="fill:#F7F4AB;" points="218.206,360.268 220.568,359.244 243.299,335.49 332.806,241.993 413.602,132.788 
			423.34,122.604 220.988,327.011 157.729,386.543 206.236,365.465 		"/>
		<polygon style="fill:#94CEA7;" points="439.142,108.749 433.459,112.794 432.537,113.459 416.41,124.927 416.358,124.979 
			416.307,124.979 396.595,138.956 332.8,181.709 332.237,182.119 234.854,247.449 232.55,249.087 173.773,290.866 173.056,291.379 
			171.725,292.351 171.162,292.044 97.075,252.825 93.593,251.034 92.262,250.316 96.922,248.729 432.026,111.36 432.537,111.104 
			432.691,111.052 		"/>
		<polygon style="fill:#F7DA80;" points="171.72,292.32 173.517,372.684 439.137,108.734 		"/>
		<polygon style="fill:#F8EB9B;" points="218.206,360.268 242.512,335.201 332.806,241.993 439.142,108.745 413.602,132.788 
			221.749,327.3 173.505,372.683 206.236,365.465 		"/>
		<polygon style="fill:#C0717D;" points="268.186,345.906 248.473,353.177 248.422,353.177 192.614,373.658 184.166,376.78 
			158.515,386.201 157.85,386.457 157.747,386.509 171.673,364.339 173.261,361.728 176.128,357.171 196.147,325.069 
			218.675,326.86 219.597,326.911 220.16,326.962 220.979,327.014 221.747,327.321 221.798,327.321 242.483,335.206 
			242.534,335.206 243.302,335.514 		"/>
		<polygon style="fill:#F8EB9B;" points="439.142,110.899 432.537,130.969 348.006,387.737 345.344,394.086 342.477,400.896 
			341.504,403.2 341.504,403.251 337.152,400.896 324.557,394.086 324.506,394.086 248.473,353.177 248.422,353.177 
			233.882,345.344 233.83,345.344 233.062,344.934 213.965,334.642 213.248,334.284 212.89,334.029 212.582,333.875 
			211.866,333.516 196.147,325.069 396.595,148.378 396.595,148.326 400.435,145.049 400.845,144.64 401.101,144.435 
			402.586,143.155 402.893,142.848 405.606,140.492 406.118,139.98 408.166,138.189 408.832,137.625 409.037,137.471 
			409.037,137.42 409.139,137.369 411.648,135.167 411.699,135.065 411.802,134.911 412.467,134.349 417.177,130.253 
			417.382,130.099 419.891,127.846 420.198,127.59 431.309,117.76 431.36,117.709 432.537,116.684 433.459,115.865 		"/>
		<polygon style="fill:#DBAFD0;" points="350.259,388.966 348.365,394.086 344.371,404.736 341.504,403.2 337.152,400.896 
			324.557,394.086 324.506,394.086 248.473,353.177 248.422,353.177 233.882,345.344 233.83,345.344 233.062,344.934 
			213.965,334.642 213.248,334.284 212.89,334.029 212.582,333.875 211.866,333.516 196.147,325.069 209.408,313.651 
			224.153,321.484 224.717,321.842 225.177,322.099 225.638,322.304 225.69,322.355 226.355,322.661 226.457,322.714 
			244.941,332.646 244.992,332.646 245.658,333.004 245.709,333.004 348.006,387.737 		"/>
		<polygon style="fill:#8AA8D8;" points="439.142,110.899 432.537,131.584 350.259,388.966 348.006,387.737 245.709,333.004 
			245.658,333.004 244.992,332.646 244.941,332.646 226.457,322.714 226.355,322.661 225.69,322.355 225.638,322.304 
			225.177,322.099 224.717,321.842 224.153,321.484 209.408,313.651 396.595,148.378 400.435,145.049 400.742,144.691 
			400.845,144.64 401.101,144.435 402.586,143.155 402.893,142.848 405.811,140.339 407.962,138.444 408.166,138.189 
			409.037,137.471 409.037,137.42 411.648,135.167 411.699,135.065 412.365,134.501 412.467,134.349 417.177,130.253 
			417.382,130.099 419.891,127.846 431.309,117.76 431.36,117.709 432.537,116.684 433.459,115.865 		"/>
	</g>
</g>
</svg>
